<mxfile host="Electron" agent="Mozilla/5.0 (Macintosh; Intel Mac OS X 10_15_7) AppleWebKit/537.36 (KHTML, like Gecko) draw.io/24.7.17 Chrome/128.0.6613.36 Electron/32.0.1 Safari/537.36" version="24.7.17">
  <diagram name="PÃ¡gina-1" id="TRtnDZyN9nC9OqxUh2jW">
    <mxGraphModel dx="1122" dy="967" grid="1" gridSize="10" guides="1" tooltips="1" connect="1" arrows="1" fold="1" page="1" pageScale="1" pageWidth="827" pageHeight="1169" math="0" shadow="0">
      <root>
        <mxCell id="0" />
        <mxCell id="1" parent="0" />
        <mxCell id="jqq9ydsBA2zocowobNKo-1" value="CPU" style="rounded=0;whiteSpace=wrap;html=1;align=left;verticalAlign=top;" vertex="1" parent="1">
          <mxGeometry x="30" y="210" width="410" height="240" as="geometry" />
        </mxCell>
        <mxCell id="jqq9ydsBA2zocowobNKo-2" value="ALU" style="rounded=0;whiteSpace=wrap;html=1;" vertex="1" parent="1">
          <mxGeometry x="43" y="240" width="130" height="120" as="geometry" />
        </mxCell>
        <mxCell id="jqq9ydsBA2zocowobNKo-11" style="edgeStyle=orthogonalEdgeStyle;rounded=0;orthogonalLoop=1;jettySize=auto;html=1;exitX=1;exitY=0.5;exitDx=0;exitDy=0;fillColor=#ffe6cc;strokeColor=#d79b00;strokeWidth=4;" edge="1" parent="1" source="jqq9ydsBA2zocowobNKo-3" target="jqq9ydsBA2zocowobNKo-5">
          <mxGeometry relative="1" as="geometry" />
        </mxCell>
        <mxCell id="jqq9ydsBA2zocowobNKo-12" value="BUS DIRECCIONAMIENTO" style="edgeLabel;html=1;align=center;verticalAlign=middle;resizable=0;points=[];" vertex="1" connectable="0" parent="jqq9ydsBA2zocowobNKo-11">
          <mxGeometry x="-0.6136" y="-1" relative="1" as="geometry">
            <mxPoint x="55" y="-11" as="offset" />
          </mxGeometry>
        </mxCell>
        <mxCell id="jqq9ydsBA2zocowobNKo-3" value="UC" style="rounded=0;whiteSpace=wrap;html=1;" vertex="1" parent="1">
          <mxGeometry x="205" y="240" width="120" height="180" as="geometry" />
        </mxCell>
        <mxCell id="jqq9ydsBA2zocowobNKo-7" style="edgeStyle=orthogonalEdgeStyle;rounded=0;orthogonalLoop=1;jettySize=auto;html=1;exitX=0.373;exitY=0.005;exitDx=0;exitDy=0;entryX=0.5;entryY=1;entryDx=0;entryDy=0;exitPerimeter=0;strokeWidth=4;fillColor=#ffe6cc;strokeColor=#d79b00;" edge="1" parent="1" source="jqq9ydsBA2zocowobNKo-4" target="jqq9ydsBA2zocowobNKo-3">
          <mxGeometry relative="1" as="geometry">
            <mxPoint x="265" y="530" as="sourcePoint" />
          </mxGeometry>
        </mxCell>
        <mxCell id="jqq9ydsBA2zocowobNKo-8" style="edgeStyle=orthogonalEdgeStyle;rounded=0;orthogonalLoop=1;jettySize=auto;html=1;exitX=0.25;exitY=0;exitDx=0;exitDy=0;entryX=0.5;entryY=1;entryDx=0;entryDy=0;strokeWidth=4;fillColor=#ffe6cc;strokeColor=#d79b00;" edge="1" parent="1" target="jqq9ydsBA2zocowobNKo-2">
          <mxGeometry relative="1" as="geometry">
            <mxPoint x="107.50000000000045" y="530" as="sourcePoint" />
          </mxGeometry>
        </mxCell>
        <mxCell id="jqq9ydsBA2zocowobNKo-4" value="BUS DE DATOS" style="rounded=0;whiteSpace=wrap;html=1;fillColor=#ffe6cc;strokeColor=#d79b00;" vertex="1" parent="1">
          <mxGeometry x="30" y="530" width="630" height="50" as="geometry" />
        </mxCell>
        <mxCell id="jqq9ydsBA2zocowobNKo-5" value="Memoria" style="rounded=0;whiteSpace=wrap;html=1;" vertex="1" parent="1">
          <mxGeometry x="501" y="210" width="160" height="240" as="geometry" />
        </mxCell>
        <mxCell id="jqq9ydsBA2zocowobNKo-6" value="Unidad de control E/S" style="rounded=0;whiteSpace=wrap;html=1;" vertex="1" parent="1">
          <mxGeometry x="30" y="680" width="210" height="130" as="geometry" />
        </mxCell>
        <mxCell id="jqq9ydsBA2zocowobNKo-9" style="edgeStyle=orthogonalEdgeStyle;rounded=0;orthogonalLoop=1;jettySize=auto;html=1;exitX=0.5;exitY=1;exitDx=0;exitDy=0;entryX=0.875;entryY=0;entryDx=0;entryDy=0;entryPerimeter=0;startArrow=classic;startFill=1;strokeWidth=4;fillColor=#ffe6cc;strokeColor=#d79b00;" edge="1" parent="1" source="jqq9ydsBA2zocowobNKo-5" target="jqq9ydsBA2zocowobNKo-4">
          <mxGeometry relative="1" as="geometry" />
        </mxCell>
        <mxCell id="jqq9ydsBA2zocowobNKo-10" style="edgeStyle=orthogonalEdgeStyle;rounded=0;orthogonalLoop=1;jettySize=auto;html=1;exitX=0.5;exitY=0;exitDx=0;exitDy=0;entryX=0.168;entryY=0.963;entryDx=0;entryDy=0;entryPerimeter=0;startArrow=classic;startFill=1;strokeWidth=4;fillColor=#ffe6cc;strokeColor=#d79b00;" edge="1" parent="1" source="jqq9ydsBA2zocowobNKo-6" target="jqq9ydsBA2zocowobNKo-4">
          <mxGeometry relative="1" as="geometry">
            <Array as="points">
              <mxPoint x="135" y="630" />
              <mxPoint x="136" y="630" />
            </Array>
          </mxGeometry>
        </mxCell>
      </root>
    </mxGraphModel>
  </diagram>
</mxfile>
